<?xml version="1.0" encoding="UTF-8"?>
<svg width="500" height="300" viewBox="0 0 375 225" xmlns="http://www.w3.org/2000/svg" zoomAndPan="magnify">
<defs>
<clipPath id="c">
<path d="m163 12h211.5v201h-211.5z"/>
</clipPath>
<clipPath id="b">
<path d="m19 12h181.3v120h-181.3z"/>
</clipPath>
<clipPath id="a">
<path d="M.8 93H181v120H.8zm0 0"/>
</clipPath>
</defs>
<g clip-path="url(#c)">
<path d="M371 79c-11.4-42-46-67.2-92.6-67.2H163l2.3 5.2C175 39.5 197 54 221.6 54H253h.3a183 183 0 0 1 12.2-.4l19.2.7h.6c24.5 2 58 8.3 78.8 27.8l.3.2c.1.1.2.2.3.3l10 9.8zm3.2 48.5v.4c-6.2 52.4-43.3 85-96.8 85h-73.5v-99.2h3.7a39 39 0 0 1 39 39v17.6H279c16 0 29.5-5.3 39-15.2 9.7-10 14.8-24.7 14.8-42.3v-.6a65 65 0 0 0-8.9-34.8l-5.5-9 10 3.4A82 82 0 0 1 358 88.7c10.8 10 16.2 23.2 16 39" fill="#38b6ff"/>
</g>
<g clip-path="url(#b)">
<path d="M200.3 12l-61.5 61.2L80 131.6h-.5c-14 0-27-5-37.3-13-13.7-11-22.5-27.8-22.5-46.7 0-16.5 6.7-31.4 17.5-42.3C48 18.8 63 12 79.6 12zm0 0" fill="#38b6ff"/>
</g>
<g clip-path="url(#a)">
<path d="M181 153c0 16.5-6.7 31.4-17.5 42.3-10.8 10.8-25.7 17.5-42.3 17.5H.8l61.5-61.2L121 93.2h.2c14 0 27 5 37.3 13C172 117.2 181 134 181 153zm0 0" fill="#38b6ff"/>
</g>
</svg>
